<svg viewBox="0 0 497.7 305.2" xmlns="http://www.w3.org/2000/svg">
  <defs></defs>
  <g id="freepik--Documents--inject-38" transform="matrix(1, 0, 0, 1, -197.23703, -47.861736)">
    <path d="M345.85,196.43s.15-.07.4,0a1.5,1.5,0,0,1,.8.7,2,2,0,0,1,.2,1.59A1.68,1.68,0,0,1,345.7,200a1.35,1.35,0,0,1-1-.52,2.16,2.16,0,0,1-.42-.88,2,2,0,0,1,.26-1.57c.55-.79,1.24-.75,1.22-.69s-.55.18-.91.87a1.66,1.66,0,0,0-.11,1.28c.11.46.47,1,1,1a1.24,1.24,0,0,0,1.09-.88,1.76,1.76,0,0,0-.07-1.27A1.81,1.81,0,0,0,345.85,196.43Z" style="fill:#263238"></path>
    <rect x="335.72" y="48.16" width="220.75" height="304.84" rx="11.83" style="fill:#f5f5f5"></rect>
    <path d="M347.65,48.16H544.53a11.93,11.93,0,0,1,11.93,11.93V75.63a0,0,0,0,1,0,0H335.72a0,0,0,0,1,0,0V60.09A11.93,11.93,0,0,1,347.65,48.16Z" style="fill:#e0e0e0"></path>
    <circle cx="349.68" cy="61.89" r="4.39" style="fill:#fff"></circle>
    <path d="M367.22,61.89a4.39,4.39,0,1,1-4.38-4.38A4.38,4.38,0,0,1,367.22,61.89Z" style="fill:#fff"></path>
    <circle cx="376.13" cy="61.89" r="4.39" style="fill:#fff"></circle>
    <rect x="345.68" y="75.63" width="200.83" height="271.31" style="fill:#fff"></rect>
    <rect x="546.5" y="105.38" width="9.96" height="49.25" rx="4.86" style="fill:#e0e0e0"></rect>
    <path d="M544.16,353l.67,0a12.56,12.56,0,0,0,2-.27,12.33,12.33,0,0,0,6.57-3.92,11.86,11.86,0,0,0,2.64-5c.58-2,.34-4.39.39-6.89,0-5,0-10.81,0-17.32,0-26.07,0-63.78-.08-110.38,0-23.3,0-48.82,0-76.21q0-20.55,0-42.47,0-10.93,0-22.2V62.64a18.5,18.5,0,0,0-.5-5.57,12.07,12.07,0,0,0-7.41-7.92,11.74,11.74,0,0,0-2.75-.66,24.8,24.8,0,0,0-2.87-.09H348.05a12.14,12.14,0,0,0-10.64,6.35A12.58,12.58,0,0,0,336,61V93.78q0,26,0,51.15c0,33.53,0,65.87,0,96.68s0,60.09,0,87.49v10.18a15,15,0,0,0,.52,4.92,11.75,11.75,0,0,0,2.31,4.27,12.09,12.09,0,0,0,8.37,4.28c3.21.1,6.44,0,9.62.05l36.57,0,110.37.08,30,.05,7.81,0,2.66,0-2.66,0-7.81,0-30,0-110.37.09H356.75c-3.19,0-6.38.05-9.65,0A12.51,12.51,0,0,1,336,344.32a15.61,15.61,0,0,1-.54-5V329.1c0-27.4,0-56.68,0-87.49s0-63.15,0-96.68V61a12.94,12.94,0,0,1,1.49-6.5,12.62,12.62,0,0,1,11.1-6.63H542.7a26.29,26.29,0,0,1,2.93.09,12.6,12.6,0,0,1,10.56,8.93,18.69,18.69,0,0,1,.51,5.7v5.65q0,11.25,0,22.2,0,21.9,0,42.47c0,27.39,0,52.91,0,76.21,0,46.6-.06,84.31-.08,110.38,0,6.51,0,12.3,0,17.32,0,2.49.18,4.85-.42,6.92a12,12,0,0,1-2.68,5,12.31,12.31,0,0,1-6.64,3.9,11.84,11.84,0,0,1-2,.24Z" style="fill:#263238"></path>
    <path d="M365.34,116.64h30.54l.29,9.18h-1.29c-.63-2.89-1.44-4.76-2.41-5.63s-3-1.31-6.16-1.31h-3v27.64c0,2.09.32,3.38,1,3.87s2.07.83,4.27,1v1H372.8v-1c2.29-.18,3.71-.55,4.27-1.13s.85-2,.85-4.36v-27h-3q-4.49,0-6.1,1.29c-1.08.86-1.9,2.75-2.44,5.65H365Z" style="fill:#263238"></path>
    <path d="M503.41,95.12a3.84,3.84,0,0,1,.56,0l1.76,0v.13c-6.49.11-28.73.2-55.12.2L410,95.31l-12.31-.08-3.35,0-.87,0-.3,0,.3,0,.87,0,3.35,0L410,94.94l40.62-.08c26.39,0,48.63.09,55.12.2v.13l-1.76,0A2.12,2.12,0,0,1,503.41,95.12Z" style="fill:#263238"></path>
    <path d="M442.81,117c0,.14-8.4.26-18.76.26s-18.77-.12-18.77-.26,8.4-.26,18.77-.26S442.81,116.82,442.81,117Z" style="fill:#263238"></path>
    <path d="M442.81,125.82c0,.14-8.4.26-18.76.26s-18.77-.12-18.77-.26,8.4-.26,18.77-.26S442.81,125.68,442.81,125.82Z" style="fill:#263238"></path>
    <path d="M442.81,134.67c0,.15-8.4.26-18.76.26s-18.77-.11-18.77-.26,8.4-.26,18.77-.26S442.81,134.53,442.81,134.67Z" style="fill:#263238"></path>
    <path d="M442.81,143.53c0,.14-8.4.26-18.76.26s-18.77-.12-18.77-.26,8.4-.26,18.77-.26S442.81,143.38,442.81,143.53Z" style="fill:#263238"></path>
    <path d="M442.81,152.38c0,.14-8.4.26-18.76.26s-18.77-.12-18.77-.26,8.4-.26,18.77-.26S442.81,152.24,442.81,152.38Z" style="fill:#263238"></path>
    <path d="M442.81,161.23c0,.15-17.75.26-39.63.26s-39.63-.11-39.63-.26,17.74-.26,39.63-.26S442.81,161.09,442.81,161.23Z" style="fill:#263238"></path>
    <path d="M442.81,169.67c0,.14-17.75.26-39.63.26s-39.63-.12-39.63-.26,17.74-.26,39.63-.26S442.81,169.52,442.81,169.67Z" style="fill:#263238"></path>
    <path d="M442.81,178.1c0,.14-17.75.26-39.63.26s-39.63-.12-39.63-.26,17.74-.26,39.63-.26S442.81,178,442.81,178.1Z" style="fill:#263238"></path>
    <path d="M442.81,186.53c0,.14-17.75.26-39.63.26s-39.63-.12-39.63-.26,17.74-.26,39.63-.26S442.81,186.39,442.81,186.53Z" style="fill:#263238"></path>
    <path d="M442.81,195c0,.15-17.75.26-39.63.26s-39.63-.11-39.63-.26,17.74-.26,39.63-.26S442.81,194.82,442.81,195Z" style="fill:#263238"></path>
    <path d="M442.81,203.39c0,.15-17.75.26-39.63.26s-39.63-.11-39.63-.26,17.74-.26,39.63-.26S442.81,203.25,442.81,203.39Z" style="fill:#263238"></path>
    <path d="M442.81,211.83c0,.14-17.75.26-39.63.26s-39.63-.12-39.63-.26,17.74-.26,39.63-.26S442.81,211.68,442.81,211.83Z" style="fill:#263238"></path>
    <path d="M442.81,220.26c0,.14-17.75.26-39.63.26s-39.63-.12-39.63-.26,17.74-.26,39.63-.26S442.81,220.11,442.81,220.26Z" style="fill:#263238"></path>
    <path d="M526.79,117c0,.14-16.63.26-37.14.26s-37.15-.12-37.15-.26,16.63-.26,37.15-.26S526.79,116.82,526.79,117Z" style="fill:#263238"></path>
    <path d="M526.79,125.4c0,.14-16.63.26-37.14.26s-37.15-.12-37.15-.26,16.63-.26,37.15-.26S526.79,125.25,526.79,125.4Z" style="fill:#263238"></path>
    <path d="M526.79,133.83c0,.14-16.63.26-37.14.26s-37.15-.12-37.15-.26,16.63-.26,37.15-.26S526.79,133.69,526.79,133.83Z" style="fill:#263238"></path>
    <path d="M526.79,142.26c0,.15-16.63.26-37.14.26s-37.15-.11-37.15-.26,16.63-.26,37.15-.26S526.79,142.12,526.79,142.26Z" style="fill:#263238"></path>
    <path d="M526.79,150.69c0,.15-16.63.26-37.14.26s-37.15-.11-37.15-.26,16.63-.26,37.15-.26S526.79,150.55,526.79,150.69Z" style="fill:#263238"></path>
    <path d="M526.79,159.13c0,.14-16.63.26-37.14.26s-37.15-.12-37.15-.26,16.63-.26,37.15-.26S526.79,159,526.79,159.13Z" style="fill:#263238"></path>
    <path d="M526.79,167.56c0,.14-16.63.26-37.14.26s-37.15-.12-37.15-.26,16.63-.26,37.15-.26S526.79,167.41,526.79,167.56Z" style="fill:#263238"></path>
    <path d="M526.79,176c0,.14-16.63.26-37.14.26s-37.15-.12-37.15-.26,16.63-.26,37.15-.26S526.79,175.85,526.79,176Z" style="fill:#263238"></path>
    <path d="M442.81,241.23c0,.15-17.58.26-39.27.26s-39.26-.11-39.26-.26,17.58-.26,39.26-.26S442.81,241.09,442.81,241.23Z" style="fill:#263238"></path>
    <path d="M442.81,249.66c0,.15-17.58.26-39.27.26s-39.26-.11-39.26-.26,17.58-.26,39.26-.26S442.81,249.52,442.81,249.66Z" style="fill:#263238"></path>
    <path d="M442.81,258.1c0,.14-17.58.26-39.27.26s-39.26-.12-39.26-.26,17.58-.26,39.26-.26S442.81,258,442.81,258.1Z" style="fill:#263238"></path>
    <path d="M442.81,266.53c0,.14-17.58.26-39.27.26s-39.26-.12-39.26-.26,17.58-.26,39.26-.26S442.81,266.38,442.81,266.53Z" style="fill:#263238"></path>
    <path d="M442.81,275c0,.14-17.58.26-39.27.26s-39.26-.12-39.26-.26,17.58-.26,39.26-.26S442.81,274.82,442.81,275Z" style="fill:#263238"></path>
    <path d="M442.81,283.39c0,.15-17.58.26-39.27.26s-39.26-.11-39.26-.26,17.58-.26,39.26-.26S442.81,283.25,442.81,283.39Z" style="fill:#263238"></path>
    <path d="M442.81,291.82c0,.15-17.58.26-39.27.26s-39.26-.11-39.26-.26,17.58-.26,39.26-.26S442.81,291.68,442.81,291.82Z" style="fill:#263238"></path>
    <path d="M442.81,300.26c0,.14-17.58.26-39.27.26s-39.26-.12-39.26-.26,17.58-.27,39.26-.27S442.81,300.11,442.81,300.26Z" style="fill:#263238"></path>
    <path d="M442.81,309.15c0,.15-17.58.26-39.27.26s-39.26-.11-39.26-.26,17.58-.26,39.26-.26S442.81,309,442.81,309.15Z" style="fill:#263238"></path>
    <path d="M442.81,318.05c0,.14-17.58.26-39.27.26s-39.26-.12-39.26-.26,17.58-.26,39.26-.26S442.81,317.9,442.81,318.05Z" style="fill:#263238"></path>
    <path d="M442.81,327c0,.14-17.58.26-39.27.26s-39.26-.12-39.26-.26,17.58-.26,39.26-.26S442.81,326.8,442.81,327Z" style="fill:#263238"></path>
    <rect x="452.5" y="184.62" width="73.81" height="71.41" style="fill:#FF725E"></rect>
    <g style="opacity:0.30000000000000004">
      <polygon points="458.23 249.91 478.64 213.17 495.34 236.65 505.49 224.18 520.59 249.91 458.23 249.91"></polygon>
    </g>
    <g style="opacity:0.30000000000000004">
      <path d="M502.46,206a5.32,5.32,0,1,1-5.31-5.31A5.31,5.31,0,0,1,502.46,206Z"></path>
    </g>
    <g style="opacity:0.30000000000000004">
      <path d="M520.59,250.11a1.64,1.64,0,0,1,0-.29c0-.21,0-.49,0-.83,0-.76,0-1.84,0-3.22,0-2.83,0-6.92-.08-12.12,0-10.43-.09-25.29-.15-43.12l.3.3-62.36,0c-.08.08.66-.66.35-.34v8.08c0,2.68,0,5.33,0,7.95,0,5.25,0,10.39,0,15.39,0,10,0,19.45,0,28.15l-.3-.3,45.08.15L516,250l3.38,0h.87l.31,0-.27,0-.85,0-3.31,0-12.65.08-45.28.16h-.31v-.31c0-8.7,0-18.15,0-28.15,0-5,0-10.14,0-15.39q0-3.93,0-7.95v-8.08c-.31.31.43-.44.36-.36l62.36,0h.3v.3c-.06,17.91-.12,32.83-.15,43.31,0,5.17-.06,9.24-.08,12.06,0,1.35,0,2.41,0,3.15,0,.34,0,.6,0,.8A2.17,2.17,0,0,1,520.59,250.11Z"></path>
    </g>
    <path d="M528.91,265.94c0,.15-17.58.26-39.26.26s-39.27-.11-39.27-.26,17.58-.26,39.27-.26S528.91,265.8,528.91,265.94Z" style="fill:#263238"></path>
    <path d="M528.91,274.37c0,.15-17.58.26-39.26.26s-39.27-.11-39.27-.26,17.58-.26,39.27-.26S528.91,274.23,528.91,274.37Z" style="fill:#263238"></path>
    <path d="M528.91,282.81c0,.14-17.58.26-39.26.26s-39.27-.12-39.27-.26,17.58-.26,39.27-.26S528.91,282.66,528.91,282.81Z" style="fill:#263238"></path>
    <path d="M528.91,291.24c0,.14-17.58.26-39.26.26s-39.27-.12-39.27-.26S468,291,489.65,291,528.91,291.09,528.91,291.24Z" style="fill:#263238"></path>
    <path d="M528.91,300.13c0,.15-17.58.27-39.26.27s-39.27-.12-39.27-.27,17.58-.26,39.27-.26S528.91,300,528.91,300.13Z" style="fill:#263238"></path>
    <path d="M528.91,309c0,.15-17.58.26-39.26.26s-39.27-.11-39.27-.26,17.58-.26,39.27-.26S528.91,308.89,528.91,309Z" style="fill:#263238"></path>
    <path d="M528.91,317.93c0,.14-17.58.26-39.26.26s-39.27-.12-39.27-.26,17.58-.26,39.27-.26S528.91,317.78,528.91,317.93Z" style="fill:#263238"></path>
  </g>
  <text style="fill: rgb(51, 51, 51); font-family: Verdana; font-size: 96px; font-weight: 700; white-space: pre;" x="0" y="285.282">PDF LIVE</text>
</svg>